<mxfile host="app.diagrams.net" modified="2024-03-03T20:08:06.587Z" agent="Mozilla/5.0 (Windows NT 10.0; Win64; x64) AppleWebKit/537.36 (KHTML, like Gecko) Chrome/122.0.0.0 Safari/537.36 Edg/122.0.0.0" etag="YjkbQ6Yt5aNU5Waci_OI" version="24.0.1" type="github">
  <diagram id="C5RBs43oDa-KdzZeNtuy" name="Page-1">
    <mxGraphModel dx="1226" dy="629" grid="1" gridSize="10" guides="1" tooltips="1" connect="1" arrows="1" fold="1" page="1" pageScale="1" pageWidth="827" pageHeight="1169" math="0" shadow="0">
      <root>
        <mxCell id="WIyWlLk6GJQsqaUBKTNV-0" />
        <mxCell id="WIyWlLk6GJQsqaUBKTNV-1" parent="WIyWlLk6GJQsqaUBKTNV-0" />
        <mxCell id="qmD_o_huo7l5SPeQ1Vrd-9" style="edgeStyle=orthogonalEdgeStyle;rounded=0;orthogonalLoop=1;jettySize=auto;html=1;entryX=0.5;entryY=0;entryDx=0;entryDy=0;" edge="1" parent="WIyWlLk6GJQsqaUBKTNV-1" source="WIyWlLk6GJQsqaUBKTNV-3" target="qmD_o_huo7l5SPeQ1Vrd-0">
          <mxGeometry relative="1" as="geometry" />
        </mxCell>
        <mxCell id="WIyWlLk6GJQsqaUBKTNV-3" value="Decide word" style="rounded=1;whiteSpace=wrap;html=1;fontSize=12;glass=0;strokeWidth=1;shadow=0;" parent="WIyWlLk6GJQsqaUBKTNV-1" vertex="1">
          <mxGeometry x="160" y="80" width="120" height="40" as="geometry" />
        </mxCell>
        <mxCell id="qmD_o_huo7l5SPeQ1Vrd-10" style="edgeStyle=orthogonalEdgeStyle;rounded=0;orthogonalLoop=1;jettySize=auto;html=1;entryX=0.5;entryY=0;entryDx=0;entryDy=0;" edge="1" parent="WIyWlLk6GJQsqaUBKTNV-1" source="qmD_o_huo7l5SPeQ1Vrd-0" target="qmD_o_huo7l5SPeQ1Vrd-2">
          <mxGeometry relative="1" as="geometry" />
        </mxCell>
        <mxCell id="qmD_o_huo7l5SPeQ1Vrd-0" value="Get the word length" style="rounded=1;whiteSpace=wrap;html=1;" vertex="1" parent="WIyWlLk6GJQsqaUBKTNV-1">
          <mxGeometry x="160" y="163" width="120" height="40" as="geometry" />
        </mxCell>
        <mxCell id="qmD_o_huo7l5SPeQ1Vrd-1" style="edgeStyle=orthogonalEdgeStyle;rounded=0;orthogonalLoop=1;jettySize=auto;html=1;exitX=0.5;exitY=1;exitDx=0;exitDy=0;" edge="1" parent="WIyWlLk6GJQsqaUBKTNV-1" source="qmD_o_huo7l5SPeQ1Vrd-0" target="qmD_o_huo7l5SPeQ1Vrd-0">
          <mxGeometry relative="1" as="geometry" />
        </mxCell>
        <mxCell id="qmD_o_huo7l5SPeQ1Vrd-11" style="edgeStyle=orthogonalEdgeStyle;rounded=0;orthogonalLoop=1;jettySize=auto;html=1;entryX=0.5;entryY=0;entryDx=0;entryDy=0;" edge="1" parent="WIyWlLk6GJQsqaUBKTNV-1" source="qmD_o_huo7l5SPeQ1Vrd-2" target="qmD_o_huo7l5SPeQ1Vrd-7">
          <mxGeometry relative="1" as="geometry" />
        </mxCell>
        <mxCell id="qmD_o_huo7l5SPeQ1Vrd-2" value="Draw the hang and the spaces for the letters" style="rounded=1;whiteSpace=wrap;html=1;" vertex="1" parent="WIyWlLk6GJQsqaUBKTNV-1">
          <mxGeometry x="160" y="240" width="120" height="50" as="geometry" />
        </mxCell>
        <mxCell id="qmD_o_huo7l5SPeQ1Vrd-13" style="edgeStyle=orthogonalEdgeStyle;rounded=0;orthogonalLoop=1;jettySize=auto;html=1;entryX=0;entryY=0.5;entryDx=0;entryDy=0;" edge="1" parent="WIyWlLk6GJQsqaUBKTNV-1" source="qmD_o_huo7l5SPeQ1Vrd-3" target="qmD_o_huo7l5SPeQ1Vrd-4">
          <mxGeometry relative="1" as="geometry" />
        </mxCell>
        <mxCell id="qmD_o_huo7l5SPeQ1Vrd-19" style="edgeStyle=orthogonalEdgeStyle;rounded=0;orthogonalLoop=1;jettySize=auto;html=1;" edge="1" parent="WIyWlLk6GJQsqaUBKTNV-1" source="qmD_o_huo7l5SPeQ1Vrd-3" target="qmD_o_huo7l5SPeQ1Vrd-5">
          <mxGeometry relative="1" as="geometry" />
        </mxCell>
        <mxCell id="qmD_o_huo7l5SPeQ1Vrd-3" value="Is letter in word?" style="rhombus;whiteSpace=wrap;html=1;" vertex="1" parent="WIyWlLk6GJQsqaUBKTNV-1">
          <mxGeometry x="135" y="390" width="170" height="80" as="geometry" />
        </mxCell>
        <mxCell id="qmD_o_huo7l5SPeQ1Vrd-14" style="edgeStyle=orthogonalEdgeStyle;rounded=0;orthogonalLoop=1;jettySize=auto;html=1;entryX=0;entryY=0.5;entryDx=0;entryDy=0;" edge="1" parent="WIyWlLk6GJQsqaUBKTNV-1" source="qmD_o_huo7l5SPeQ1Vrd-4" target="qmD_o_huo7l5SPeQ1Vrd-8">
          <mxGeometry relative="1" as="geometry" />
        </mxCell>
        <mxCell id="qmD_o_huo7l5SPeQ1Vrd-4" value="Fill corresponding space" style="rounded=1;whiteSpace=wrap;html=1;" vertex="1" parent="WIyWlLk6GJQsqaUBKTNV-1">
          <mxGeometry x="350" y="405" width="120" height="50" as="geometry" />
        </mxCell>
        <mxCell id="qmD_o_huo7l5SPeQ1Vrd-20" style="edgeStyle=orthogonalEdgeStyle;rounded=0;orthogonalLoop=1;jettySize=auto;html=1;entryX=0.5;entryY=0;entryDx=0;entryDy=0;" edge="1" parent="WIyWlLk6GJQsqaUBKTNV-1" source="qmD_o_huo7l5SPeQ1Vrd-5" target="qmD_o_huo7l5SPeQ1Vrd-6">
          <mxGeometry relative="1" as="geometry" />
        </mxCell>
        <mxCell id="qmD_o_huo7l5SPeQ1Vrd-5" value="Reduce life of hangedman" style="rounded=1;whiteSpace=wrap;html=1;" vertex="1" parent="WIyWlLk6GJQsqaUBKTNV-1">
          <mxGeometry x="160" y="488" width="120" height="50" as="geometry" />
        </mxCell>
        <mxCell id="qmD_o_huo7l5SPeQ1Vrd-23" style="edgeStyle=orthogonalEdgeStyle;rounded=0;orthogonalLoop=1;jettySize=auto;html=1;entryX=0;entryY=0.5;entryDx=0;entryDy=0;" edge="1" parent="WIyWlLk6GJQsqaUBKTNV-1" source="qmD_o_huo7l5SPeQ1Vrd-6" target="qmD_o_huo7l5SPeQ1Vrd-22">
          <mxGeometry relative="1" as="geometry" />
        </mxCell>
        <mxCell id="qmD_o_huo7l5SPeQ1Vrd-25" style="edgeStyle=orthogonalEdgeStyle;rounded=0;orthogonalLoop=1;jettySize=auto;html=1;entryX=0;entryY=0.5;entryDx=0;entryDy=0;" edge="1" parent="WIyWlLk6GJQsqaUBKTNV-1" source="qmD_o_huo7l5SPeQ1Vrd-6" target="qmD_o_huo7l5SPeQ1Vrd-7">
          <mxGeometry relative="1" as="geometry">
            <Array as="points">
              <mxPoint x="110" y="615" />
              <mxPoint x="110" y="348" />
            </Array>
          </mxGeometry>
        </mxCell>
        <mxCell id="qmD_o_huo7l5SPeQ1Vrd-6" value="Is there any life point left?" style="rhombus;whiteSpace=wrap;html=1;" vertex="1" parent="WIyWlLk6GJQsqaUBKTNV-1">
          <mxGeometry x="166.25" y="570" width="107.5" height="90" as="geometry" />
        </mxCell>
        <mxCell id="qmD_o_huo7l5SPeQ1Vrd-12" style="edgeStyle=orthogonalEdgeStyle;rounded=0;orthogonalLoop=1;jettySize=auto;html=1;entryX=0.5;entryY=0;entryDx=0;entryDy=0;" edge="1" parent="WIyWlLk6GJQsqaUBKTNV-1" source="qmD_o_huo7l5SPeQ1Vrd-7" target="qmD_o_huo7l5SPeQ1Vrd-3">
          <mxGeometry relative="1" as="geometry" />
        </mxCell>
        <mxCell id="qmD_o_huo7l5SPeQ1Vrd-7" value="Ask for letter" style="rounded=1;whiteSpace=wrap;html=1;" vertex="1" parent="WIyWlLk6GJQsqaUBKTNV-1">
          <mxGeometry x="160" y="323" width="120" height="50" as="geometry" />
        </mxCell>
        <mxCell id="qmD_o_huo7l5SPeQ1Vrd-15" style="edgeStyle=orthogonalEdgeStyle;rounded=0;orthogonalLoop=1;jettySize=auto;html=1;entryX=1;entryY=0.5;entryDx=0;entryDy=0;" edge="1" parent="WIyWlLk6GJQsqaUBKTNV-1" source="qmD_o_huo7l5SPeQ1Vrd-8" target="qmD_o_huo7l5SPeQ1Vrd-7">
          <mxGeometry relative="1" as="geometry">
            <Array as="points">
              <mxPoint x="605" y="348" />
            </Array>
          </mxGeometry>
        </mxCell>
        <mxCell id="qmD_o_huo7l5SPeQ1Vrd-18" style="edgeStyle=orthogonalEdgeStyle;rounded=0;orthogonalLoop=1;jettySize=auto;html=1;entryX=0;entryY=0.5;entryDx=0;entryDy=0;" edge="1" parent="WIyWlLk6GJQsqaUBKTNV-1" source="qmD_o_huo7l5SPeQ1Vrd-8" target="qmD_o_huo7l5SPeQ1Vrd-17">
          <mxGeometry relative="1" as="geometry" />
        </mxCell>
        <mxCell id="qmD_o_huo7l5SPeQ1Vrd-8" value="Is word complete?" style="rhombus;whiteSpace=wrap;html=1;" vertex="1" parent="WIyWlLk6GJQsqaUBKTNV-1">
          <mxGeometry x="520" y="390" width="170" height="80" as="geometry" />
        </mxCell>
        <mxCell id="qmD_o_huo7l5SPeQ1Vrd-16" value="No" style="text;html=1;align=center;verticalAlign=middle;whiteSpace=wrap;rounded=0;" vertex="1" parent="WIyWlLk6GJQsqaUBKTNV-1">
          <mxGeometry x="600" y="360" width="60" height="30" as="geometry" />
        </mxCell>
        <mxCell id="qmD_o_huo7l5SPeQ1Vrd-17" value="Win game" style="ellipse;whiteSpace=wrap;html=1;aspect=fixed;" vertex="1" parent="WIyWlLk6GJQsqaUBKTNV-1">
          <mxGeometry x="770" y="390" width="80" height="80" as="geometry" />
        </mxCell>
        <mxCell id="qmD_o_huo7l5SPeQ1Vrd-21" value="Yes" style="text;html=1;align=center;verticalAlign=middle;whiteSpace=wrap;rounded=0;" vertex="1" parent="WIyWlLk6GJQsqaUBKTNV-1">
          <mxGeometry x="700" y="405" width="60" height="30" as="geometry" />
        </mxCell>
        <mxCell id="qmD_o_huo7l5SPeQ1Vrd-22" value="Gameover" style="ellipse;whiteSpace=wrap;html=1;aspect=fixed;" vertex="1" parent="WIyWlLk6GJQsqaUBKTNV-1">
          <mxGeometry x="370" y="575" width="80" height="80" as="geometry" />
        </mxCell>
        <mxCell id="qmD_o_huo7l5SPeQ1Vrd-24" value="No" style="text;html=1;align=center;verticalAlign=middle;whiteSpace=wrap;rounded=0;" vertex="1" parent="WIyWlLk6GJQsqaUBKTNV-1">
          <mxGeometry x="290" y="585" width="60" height="30" as="geometry" />
        </mxCell>
        <mxCell id="qmD_o_huo7l5SPeQ1Vrd-26" value="Yes" style="text;html=1;align=center;verticalAlign=middle;whiteSpace=wrap;rounded=0;" vertex="1" parent="WIyWlLk6GJQsqaUBKTNV-1">
          <mxGeometry x="106.25" y="585" width="60" height="30" as="geometry" />
        </mxCell>
      </root>
    </mxGraphModel>
  </diagram>
</mxfile>
